<mxfile host="65bd71144e">
    <diagram id="19zrngIetSiK8GHSxCtT" name="Page-1">
        <mxGraphModel dx="1118" dy="790" grid="1" gridSize="10" guides="1" tooltips="1" connect="1" arrows="1" fold="1" page="1" pageScale="1" pageWidth="827" pageHeight="1169" math="0" shadow="0">
            <root>
                <mxCell id="0"/>
                <mxCell id="1" parent="0"/>
                <mxCell id="2" value="&lt;b&gt;Logo&lt;/b&gt;" style="rounded=1;whiteSpace=wrap;html=1;" vertex="1" parent="1">
                    <mxGeometry x="50" y="40" width="90" height="50" as="geometry"/>
                </mxCell>
                <mxCell id="4" value="Nhân viên" style="rounded=1;whiteSpace=wrap;html=1;" vertex="1" parent="1">
                    <mxGeometry x="160" y="40" width="100" height="50" as="geometry"/>
                </mxCell>
                <mxCell id="5" value="Phòng ban" style="rounded=1;whiteSpace=wrap;html=1;fillColor=#1ba1e2;fontColor=#ffffff;strokeColor=#006EAF;" vertex="1" parent="1">
                    <mxGeometry x="260" y="40" width="100" height="50" as="geometry"/>
                </mxCell>
                <mxCell id="6" value="Bảng luong" style="rounded=1;whiteSpace=wrap;html=1;" vertex="1" parent="1">
                    <mxGeometry x="360" y="40" width="100" height="50" as="geometry"/>
                </mxCell>
                <mxCell id="7" value="Thông tin phòng ban 1" style="rounded=1;whiteSpace=wrap;html=1;" vertex="1" parent="1">
                    <mxGeometry x="90" y="190" width="190" height="160" as="geometry"/>
                </mxCell>
                <mxCell id="8" value="Thông tin phòng ban 2" style="rounded=1;whiteSpace=wrap;html=1;" vertex="1" parent="1">
                    <mxGeometry x="319" y="190" width="190" height="160" as="geometry"/>
                </mxCell>
                <mxCell id="9" value="Thông tin phòng ban 3" style="rounded=1;whiteSpace=wrap;html=1;" vertex="1" parent="1">
                    <mxGeometry x="550" y="190" width="190" height="160" as="geometry"/>
                </mxCell>
                <mxCell id="10" value="Thông tin phòng ban 4" style="rounded=1;whiteSpace=wrap;html=1;" vertex="1" parent="1">
                    <mxGeometry x="90" y="410" width="190" height="160" as="geometry"/>
                </mxCell>
                <mxCell id="11" value="&lt;span style=&quot;font-family: &amp;#34;helvetica&amp;#34;&quot;&gt;&lt;br&gt;Thông tin nhân viên 5&lt;/span&gt;" style="rounded=1;whiteSpace=wrap;html=1;" vertex="1" parent="1">
                    <mxGeometry x="319" y="410" width="190" height="160" as="geometry"/>
                </mxCell>
                <mxCell id="12" value="Thông tin phòng ban 6&lt;br&gt;" style="rounded=1;whiteSpace=wrap;html=1;" vertex="1" parent="1">
                    <mxGeometry x="550" y="410" width="190" height="160" as="geometry"/>
                </mxCell>
                <mxCell id="13" value="Footer&lt;br&gt;" style="rounded=1;whiteSpace=wrap;html=1;" vertex="1" parent="1">
                    <mxGeometry y="620" width="820" height="170" as="geometry"/>
                </mxCell>
            </root>
        </mxGraphModel>
    </diagram>
</mxfile>